<svg width="16" height="18" viewBox="0 0 16 18" fill="none" xmlns="http://www.w3.org/2000/svg">
<path d="M7.12989 12.6299C7.00421 12.7556 7.00421 12.9587 7.12989 13.0844C7.19256 13.1471 7.27485 13.1786 7.35714 13.1786C7.43942 13.1786 7.52171 13.1471 7.58439 13.0844L11.4412 9.22757C11.4711 9.198 11.4946 9.16232 11.511 9.12278C11.5434 9.04435 11.5434 8.95596 11.511 8.87721C11.4946 8.83768 11.4708 8.802 11.4412 8.7721L7.58439 4.91561C7.45871 4.78993 7.25556 4.78993 7.12989 4.91561C7.00421 5.04128 7.00421 5.24443 7.12989 5.37011L10.4383 8.67857H0.607134C0.429384 8.67857 0.285706 8.82225 0.285706 9C0.285706 9.17775 0.429384 9.32143 0.607134 9.32143H10.4383L7.12989 12.6299Z" fill="#99889B"/>
<path d="M15.3929 0H3.50002C3.32227 0 3.17859 0.143679 3.17859 0.321429V7.07143C3.17859 7.24918 3.32227 7.39286 3.50002 7.39286C3.67777 7.39286 3.82145 7.24918 3.82145 7.07143V0.642857H15.0714V17.3571H3.82145V10.9286C3.82145 10.7508 3.67777 10.6071 3.50002 10.6071C3.32227 10.6071 3.17859 10.7508 3.17859 10.9286V17.6786C3.17859 17.8563 3.32227 18 3.50002 18H15.3929C15.5706 18 15.7143 17.8563 15.7143 17.6786V0.321429C15.7143 0.143679 15.5706 0 15.3929 0Z" fill="#99889B"/>
</svg>
