<svg width="18" height="5" viewBox="0 0 18 5" fill="none" xmlns="http://www.w3.org/2000/svg">
<path d="M2.4 0C1.0767 0 0 1.0767 0 2.4C0 3.7233 1.0767 4.8 2.4 4.8C3.7233 4.8 4.8 3.7233 4.8 2.4C4.8 1.0767 3.7233 0 2.4 0ZM2.4 4.2C1.4073 4.2 0.6 3.3927 0.6 2.4C0.6 1.4073 1.4073 0.6 2.4 0.6C3.3927 0.6 4.2 1.4073 4.2 2.4C4.2 3.3927 3.3927 4.2 2.4 4.2Z" fill="#99889B"/>
<path d="M15.6002 0C14.2769 0 13.2002 1.0767 13.2002 2.4C13.2002 3.7233 14.2769 4.8 15.6002 4.8C16.9235 4.8 18.0002 3.7233 18.0002 2.4C18.0002 1.0767 16.9235 0 15.6002 0ZM15.6002 4.2C14.6075 4.2 13.8002 3.3927 13.8002 2.4C13.8002 1.4073 14.6075 0.6 15.6002 0.6C16.5929 0.6 17.4002 1.4073 17.4002 2.4C17.4002 3.3927 16.5929 4.2 15.6002 4.2Z" fill="#99889B"/>
<path d="M9.0001 0C7.6768 0 6.6001 1.0767 6.6001 2.4C6.6001 3.7233 7.6768 4.8 9.0001 4.8C10.3234 4.8 11.4001 3.7233 11.4001 2.4C11.4001 1.0767 10.3234 0 9.0001 0ZM9.0001 4.2C8.0074 4.2 7.2001 3.3927 7.2001 2.4C7.2001 1.4073 8.0074 0.6 9.0001 0.6C9.9928 0.6 10.8001 1.4073 10.8001 2.4C10.8001 3.3927 9.9928 4.2 9.0001 4.2Z" fill="#99889B"/>
</svg>
