<svg width="18" height="18" viewBox="0 0 18 18" fill="none" xmlns="http://www.w3.org/2000/svg">
<path d="M17.0733 7H15.3893C15.1187 7 14.8957 6.851 14.792 6.601C14.6883 6.351 14.741 6.08767 14.932 5.89633L16.1227 4.706C16.2977 4.531 16.394 4.298 16.394 4.05067C16.394 3.803 16.2977 3.57033 16.1227 3.395L14.605 1.87733C14.255 1.52733 13.6447 1.52667 13.294 1.87733L12.1037 3.06767C11.9123 3.25867 11.6483 3.312 11.399 3.208C11.149 3.10433 11 2.88133 11 2.61067V0.926667C11 0.415667 10.5843 0 10.0733 0H7.92667C7.41567 0 7 0.415667 7 0.926667V2.61067C7 2.88133 6.851 3.10433 6.601 3.208C6.35167 3.31233 6.08767 3.25867 5.89633 3.06767L4.706 1.87733C4.35533 1.52667 3.745 1.52733 3.395 1.87733L1.87733 3.395C1.70233 3.57 1.606 3.803 1.606 4.05067C1.606 4.298 1.70233 4.53067 1.87733 4.706L3.068 5.89633C3.259 6.08767 3.31133 6.351 3.208 6.601C3.10467 6.851 2.88133 7 2.61067 7H0.926667C0.415667 7 0 7.41567 0 7.92667V10.073C0 10.5843 0.415667 11 0.926667 11H2.61067C2.88133 11 3.10433 11.149 3.208 11.399C3.31167 11.649 3.259 11.9123 3.068 12.1037L1.87733 13.294C1.70233 13.469 1.606 13.702 1.606 13.9493C1.606 14.197 1.70233 14.4297 1.87733 14.605L3.395 16.1227C3.74533 16.473 4.35533 16.4737 4.706 16.1227L5.89633 14.932C6.08767 14.741 6.35067 14.6883 6.601 14.792C6.851 14.8957 7 15.1187 7 15.3893V17.0733C7 17.5843 7.41567 18 7.92667 18H10.073C10.584 18 10.9997 17.5843 10.9997 17.0733V15.3893C10.9997 15.1187 11.1487 14.8957 11.3987 14.792C11.649 14.688 11.912 14.741 12.1033 14.932L13.2937 16.1227C13.6443 16.4733 14.2547 16.4727 14.6047 16.1227L16.1223 14.605C16.2973 14.43 16.3937 14.197 16.3937 13.9493C16.3937 13.702 16.2973 13.4693 16.1223 13.294L14.9317 12.1037C14.7407 11.9123 14.6883 11.649 14.7917 11.399C14.895 11.149 15.1187 11 15.3893 11H17.0733C17.5843 11 18 10.5843 18 10.0733V7.92667C18 7.41567 17.5843 7 17.0733 7ZM17.3333 10.0733C17.3333 10.2167 17.2167 10.3333 17.0733 10.3333H15.3893C14.848 10.3333 14.383 10.644 14.176 11.144C13.9687 11.644 14.0777 12.1927 14.4607 12.5753L15.6513 13.7657C15.753 13.8673 15.753 14.0323 15.6513 14.1337L14.1337 15.6513C14.0323 15.7527 13.8673 15.7533 13.7657 15.6513L12.5753 14.4607C12.1923 14.0777 11.644 13.9693 11.144 14.176C10.644 14.383 10.3333 14.848 10.3333 15.3893V17.0733C10.3333 17.2167 10.2167 17.3333 10.0733 17.3333H7.92667C7.78333 17.3333 7.66667 17.2167 7.66667 17.0733V15.3893C7.66667 14.848 7.356 14.383 6.856 14.176C6.68833 14.1063 6.51567 14.0723 6.345 14.0723C6.007 14.0723 5.67933 14.2057 5.42467 14.4603L4.23433 15.651C4.13233 15.753 3.96733 15.7523 3.86633 15.651L2.34867 14.1333C2.247 14.0317 2.247 13.8667 2.34867 13.7653L3.53933 12.575C3.922 12.1923 4.03133 11.6437 3.824 11.1437C3.617 10.644 3.152 10.3333 2.61067 10.3333H0.926667C0.783333 10.3333 0.666667 10.2167 0.666667 10.0733V7.92667C0.666667 7.78333 0.783333 7.66667 0.926667 7.66667H2.61067C3.152 7.66667 3.617 7.356 3.824 6.856C4.03133 6.356 3.92233 5.80733 3.53933 5.42467L2.34867 4.23433C2.247 4.13267 2.247 3.96767 2.34867 3.86633L3.86633 2.34867C3.96767 2.247 4.13267 2.247 4.23433 2.34867L5.42467 3.539C5.807 3.92133 6.35533 4.031 6.856 3.82367C7.356 3.617 7.66667 3.152 7.66667 2.61067V0.926667C7.66667 0.783333 7.78333 0.666667 7.92667 0.666667H10.073C10.2167 0.666667 10.3333 0.783333 10.3333 0.926667V2.61067C10.3333 3.152 10.644 3.617 11.144 3.824C11.6447 4.03133 12.1927 3.922 12.5753 3.53933L13.7657 2.349C13.8677 2.24733 14.0327 2.24733 14.1337 2.349L15.6513 3.86667C15.753 3.96833 15.753 4.13333 15.6513 4.23467L14.4607 5.425C14.078 5.80767 13.9687 6.35633 14.176 6.85633C14.383 7.35633 14.848 7.667 15.3893 7.667H17.0733C17.2167 7.66667 17.3333 7.78333 17.3333 7.92667V10.0733Z" fill="#99889B"/>
<path d="M9 6C7.34567 6 6 7.34567 6 9C6 10.6543 7.34567 12 9 12C10.6543 12 12 10.6543 12 9C12 7.34567 10.6543 6 9 6ZM9 11.3333C7.71367 11.3333 6.66667 10.2863 6.66667 9C6.66667 7.71367 7.71367 6.66667 9 6.66667C10.2863 6.66667 11.3333 7.71367 11.3333 9C11.3333 10.2863 10.2863 11.3333 9 11.3333Z" fill="#99889B"/>
</svg>
