<svg width="16" height="16" viewBox="0 0 16 16" fill="none" xmlns="http://www.w3.org/2000/svg">
<path d="M15.9734 0.210383C15.939 0.126979 15.8726 0.0605957 15.7892 0.0262128C15.7477 0.00919149 15.7034 0 15.6592 0H6.46768C6.27943 0 6.12726 0.152511 6.12726 0.340426C6.12726 0.52834 6.27943 0.680851 6.46768 0.680851H14.8374L0.0993415 15.4189C-0.0337649 15.552 -0.0337649 15.7671 0.0993415 15.9003C0.165724 15.9666 0.252873 16 0.340022 16C0.427171 16 0.51432 15.9666 0.580703 15.9003L15.3187 1.16221V9.53191C15.3187 9.71983 15.4709 9.87234 15.6592 9.87234C15.8474 9.87234 15.9996 9.71983 15.9996 9.53191V0.340426C15.9996 0.29617 15.9907 0.251915 15.9734 0.210383Z" fill="#E7E4E7"/>
</svg>
