<svg width="14" height="18" viewBox="0 0 14 18" fill="none" xmlns="http://www.w3.org/2000/svg">
<path d="M10.7896 7.26316V3.66347C10.7896 1.64337 9.01895 0 6.84221 0C4.66547 0 2.89484 1.64337 2.89484 3.66347V7.26316H0.0527344V15.4737V18H13.9475V15.4737V7.26316H10.7896ZM3.52642 3.66347C3.52642 1.99168 5.01379 0.631579 6.84221 0.631579C8.67063 0.631579 10.158 1.99168 10.158 3.66347V7.26316H3.52642V3.66347ZM13.3159 17.3684H0.684313V16.1053H13.3159V17.3684ZM0.684313 15.4737V7.89474H2.89484H10.7896H13.3159V15.4737H0.684313Z" fill="#99889B"/>
<path d="M6.99997 9.78949C6.30334 9.78949 5.73682 10.356 5.73682 11.0526V12.9474C5.73682 13.644 6.30334 14.2105 6.99997 14.2105C7.69661 14.2105 8.26313 13.644 8.26313 12.9474V11.0526C8.26313 10.356 7.69661 9.78949 6.99997 9.78949ZM7.63155 12.9474C7.63155 13.2957 7.34829 13.579 6.99997 13.579C6.65166 13.579 6.3684 13.2957 6.3684 12.9474V11.0526C6.3684 10.7043 6.65166 10.4211 6.99997 10.4211C7.34829 10.4211 7.63155 10.7043 7.63155 11.0526V12.9474Z" fill="#99889B"/>
</svg>
