<svg width="18" height="18" viewBox="0 0 18 18" fill="none" xmlns="http://www.w3.org/2000/svg">
<circle cx="9" cy="9" r="9" fill="white"/>
<path d="M9 0C4.03754 0 0 4.03719 0 9C0 13.9628 4.03754 18 9 18C13.9625 18 18 13.9628 18 9C18 4.03719 13.9625 0 9 0ZM9 17.3077C4.41935 17.3077 0.692308 13.5807 0.692308 9C0.692308 4.41935 4.41935 0.692308 9 0.692308C13.5807 0.692308 17.3077 4.41935 17.3077 9C17.3077 13.5807 13.5807 17.3077 9 17.3077Z" fill="#28C800"/>
<path d="M13.2411 5.30863L7.92105 11.2936L4.71601 8.72966C4.56717 8.61024 4.34875 8.63482 4.22967 8.78366C4.11025 8.9332 4.13448 9.15093 4.28367 9.27036L7.74521 12.0396C7.8089 12.0905 7.8854 12.1154 7.96155 12.1154C8.05709 12.1154 8.15228 12.0759 8.22048 11.9991L13.7589 5.76832C13.886 5.6257 13.8732 5.40659 13.7302 5.2799C13.5869 5.15251 13.3685 5.16532 13.2411 5.30863Z" fill="#28C800"/>
</svg>
