<svg width="18" height="18" viewBox="0 0 18 18" fill="none" xmlns="http://www.w3.org/2000/svg">
<path d="M14.4041 12.8667L11.5382 11.4339C11.2679 11.2986 11.0999 11.0268 11.0999 10.7244V9.7101C11.1686 9.6261 11.2409 9.5304 11.3156 9.4248C11.6873 8.8998 11.9852 8.3154 12.2018 7.6851C12.6251 7.491 12.8999 7.0725 12.8999 6.6V5.4C12.8999 5.1111 12.7919 4.8312 12.5999 4.6125V3.0168C12.6167 2.8518 12.6827 1.8696 11.9723 1.0593C11.3561 0.3564 10.3562 0 8.99985 0C7.64355 0 6.64365 0.3564 6.02745 1.059C5.31705 1.8693 5.38305 2.8518 5.39985 3.0168V4.6125C5.20785 4.8312 5.09985 5.1111 5.09985 5.4V6.6C5.09985 6.9651 5.26575 7.3056 5.54895 7.5327C5.82375 8.6208 6.39885 9.4407 6.59985 9.7038V10.6965C6.59985 10.9869 6.44145 11.2533 6.18675 11.3925L3.51045 12.8523C2.64015 13.3272 2.09985 14.2374 2.09985 15.2286V16.2C2.09985 17.6238 6.61335 18 8.99985 18C11.3864 18 15.8999 17.6238 15.8999 16.2V15.2871C15.8999 14.2557 15.3266 13.3281 14.4041 12.8667ZM15.2999 16.2C15.2999 16.6071 13.0763 17.4 8.99985 17.4C4.92345 17.4 2.69985 16.6071 2.69985 16.2V15.2286C2.69985 14.4573 3.12045 13.7484 3.79755 13.3794L6.47385 11.9196C6.92175 11.6751 7.19985 11.2062 7.19985 10.6965V9.4908L7.12995 9.4074C7.12275 9.3987 6.38745 8.5092 6.10695 7.2879L6.07965 7.1691L5.97735 7.1031C5.80365 6.9909 5.69985 6.8028 5.69985 6.6V5.4C5.69985 5.2317 5.77125 5.0748 5.90085 4.9575L5.99985 4.8684V3L5.99715 2.9607C5.99625 2.9526 5.89425 2.121 6.47865 1.4544C6.97575 0.8874 7.82415 0.6 8.99985 0.6C10.1714 0.6 11.018 0.8853 11.5157 1.4484C12.0998 2.1087 12.0032 2.9535 12.0026 2.9607L11.9999 4.8684L12.0989 4.9578C12.2285 5.0748 12.2999 5.2317 12.2999 5.4V6.6C12.2999 6.8619 12.1283 7.0911 11.8733 7.1697L11.7239 7.2156L11.6759 7.3641C11.4752 7.9884 11.1893 8.565 10.8257 9.078C10.7366 9.2043 10.6499 9.3162 10.5746 9.4017L10.4999 9.4869V10.7244C10.4999 11.2554 10.7948 11.7327 11.2697 11.9703L14.1356 13.4031C14.8538 13.7622 15.2999 14.484 15.2999 15.2871V16.2Z" fill="#99889B"/>
</svg>
