<svg width="18" height="18" viewBox="0 0 18 18" fill="none" xmlns="http://www.w3.org/2000/svg">
<path d="M17.4841 6.69694C17.3478 6.5606 17.1274 6.5606 16.9911 6.69694L7.47339 16.2146C6.77179 16.9162 5.83551 17.3022 4.83611 17.3022C3.83636 17.3022 2.89973 16.9162 2.19848 16.2146C1.49722 15.513 1.11085 14.5767 1.11085 13.577C1.11085 12.5776 1.49687 11.6409 2.19848 10.9397L11.7158 1.42168C12.726 0.411816 14.3119 0.473537 15.4048 1.56569C16.4973 2.6582 16.5593 4.24447 15.5491 5.25468L6.60825 14.1959C6.10855 14.6956 5.29466 14.696 4.79391 14.1959C4.29387 13.6955 4.29387 12.8816 4.79391 12.3816L10.8506 6.32487C10.987 6.18853 10.987 5.96814 10.8506 5.8318C10.7143 5.69545 10.4939 5.69545 10.3576 5.8318L4.30084 11.8882C3.5288 12.6602 3.5288 13.9163 4.30084 14.6887C5.07358 15.4614 6.32998 15.46 7.10132 14.6887L16.0426 5.74741C17.3338 4.45579 17.2718 2.44583 15.8982 1.07227C14.525 -0.300945 12.5147 -0.363364 11.2231 0.928254L1.70505 10.4463C0.871638 11.2793 0.413086 12.391 0.413086 13.577C0.413086 14.7629 0.871638 15.875 1.70505 16.708C2.53812 17.5414 3.6498 18 4.83611 18C6.02172 18 7.13375 17.5414 7.96682 16.708L17.4841 7.19002C17.6205 7.05367 17.6205 6.83294 17.4841 6.69694Z" fill="#99889B"/>
</svg>
