<svg width="30" height="30" viewBox="0 0 30 30" fill="none" xmlns="http://www.w3.org/2000/svg">
<path d="M15 0C6.72915 0 0 6.72915 0 15C0 23.2708 6.72915 29.9999 15 29.9999C23.2708 29.9999 29.9999 23.2708 29.9999 15C29.9999 6.72915 23.2709 0 15 0ZM15 28.6956C7.4478 28.6956 1.30433 22.5521 1.30433 15C1.30433 7.4478 7.4478 1.30433 15 1.30433C22.5521 1.30433 28.6956 7.4478 28.6956 15C28.6956 22.5521 22.5521 28.6956 15 28.6956Z" fill="#EE6B9C"/>
<path d="M14.9998 6.52176C12.4824 6.52176 10.4346 8.56957 10.4346 11.087V12.3913C10.4346 12.7513 10.7268 13.0435 11.0868 13.0435C11.4468 13.0435 11.739 12.7513 11.739 12.3913V11.087C11.739 9.28957 13.2012 7.82609 14.9998 7.82609C16.7985 7.82609 18.2607 9.28957 18.2607 11.0869V12.0743C18.2607 12.9456 17.9215 13.7647 17.3046 14.3817L15.6846 16.0017C14.8224 16.8652 14.3476 18.0104 14.3476 19.23V20.2173C14.3476 20.5773 14.6398 20.8695 14.9998 20.8695C15.3598 20.8695 15.652 20.5774 15.652 20.2174V19.23C15.652 18.3587 15.9911 17.5396 16.6081 16.9226L18.2281 15.3026C19.0903 14.4391 19.565 13.2939 19.565 12.0744V11.087C19.565 8.56957 17.5172 6.52176 14.9998 6.52176Z" fill="#EE6B9C"/>
<path d="M14.9996 22.1739C14.2796 22.1739 13.6953 22.7595 13.6953 23.4782C13.6953 24.197 14.2796 24.7826 14.9996 24.7826C15.7196 24.7826 16.304 24.1969 16.304 23.4782C16.304 22.7595 15.7196 22.1739 14.9996 22.1739Z" fill="#EE6B9C"/>
</svg>
