<svg width="18" height="18" viewBox="0 0 18 18" fill="none" xmlns="http://www.w3.org/2000/svg">
<path d="M17.2371 17.4247L12.1874 12.1731C13.4754 10.8814 14.2733 9.10059 14.2733 7.13665C14.2733 3.2013 11.072 0 7.13665 0C3.2013 0 0 3.2013 0 7.13665C0 11.072 3.2013 14.2733 7.13665 14.2733C8.86406 14.2733 10.4494 13.6558 11.6851 12.6312L16.747 17.8957C16.8136 17.9653 16.9027 18 16.992 18C17.077 18 17.1616 17.9684 17.2275 17.9052C17.3628 17.775 17.3669 17.5599 17.2371 17.4247ZM7.13665 13.5936C3.57614 13.5936 0.679681 10.6972 0.679681 7.13665C0.679681 3.57614 3.57614 0.679681 7.13665 0.679681C10.6972 0.679681 13.5936 3.57614 13.5936 7.13665C13.5936 10.6972 10.6968 13.5936 7.13665 13.5936Z" fill="#99889B"/>
</svg>
