<svg width="30" height="30" viewBox="0 0 30 30" fill="none" xmlns="http://www.w3.org/2000/svg">
<path d="M15 0C6.72923 0 0 6.72865 0 15C0 23.2713 6.72923 30 15 30C23.2708 30 30 23.2713 30 15C30 6.72865 23.2708 0 15 0ZM15 28.8462C7.36558 28.8462 1.15385 22.6344 1.15385 15C1.15385 7.36558 7.36558 1.15385 15 1.15385C22.6344 1.15385 28.8462 7.36558 28.8462 15C28.8462 22.6344 22.6344 28.8462 15 28.8462Z" fill="#EE6B9C"/>
<path d="M14.9998 5.76923C14.6813 5.76923 14.4229 6.02712 14.4229 6.34615V19.0385C14.4229 19.3575 14.6813 19.6154 14.9998 19.6154C15.3182 19.6154 15.5767 19.3575 15.5767 19.0385V6.34615C15.5767 6.02712 15.3182 5.76923 14.9998 5.76923Z" fill="#EE6B9C"/>
<path d="M14.9998 21.3462C14.6813 21.3462 14.4229 21.604 14.4229 21.9231V23.0769C14.4229 23.396 14.6813 23.6538 14.9998 23.6538C15.3182 23.6538 15.5767 23.396 15.5767 23.0769V21.9231C15.5767 21.604 15.3182 21.3462 14.9998 21.3462Z" fill="#EE6B9C"/>
</svg>
